<svg width="527" height="108" viewBox="0 0 527 108" fill="none" xmlns="http://www.w3.org/2000/svg">
<rect x="30.6584" width="45.9369" height="107.253" rx="14" fill="#DFF4F9"/>
<rect y="76.5947" width="45.9369" height="107.253" rx="14" transform="rotate(-90 0 76.5947)" fill="#DFF4F9"/>
<path d="M53.038 53.535C53.038 53.535 69.8513 66.6702 72.3172 67.5669C74.7832 68.4636 79.358 69.8312 85.9921 70.5559C92.6261 71.2807 93.2542 71.0604 96.9768 69.7339C100.699 68.4075 102.26 64.4503 103.179 61.813C104.098 59.1757 104.219 39.5425 102.432 37.7513C100.644 35.96 99.5922 34.4633 95.6317 33.7161C91.6712 32.9688 80.2087 33.7694 72.3172 35.3601C70.6636 36.0354 69.0179 37.016 68.1326 39.47C67.2472 41.924 67.1416 53.2382 67.6095 54.4151C68.0774 55.5921 68.7874 56.1328 69.8513 56.2833C71.1273 56.4333 71.6714 55.8634 72.1678 54.4151C72.3172 53.8921 72.1905 44.4229 72.9898 41.4876C73.789 38.5523 96.3043 37.004 97.4252 40.292C98.546 43.5799 98.9197 56.5822 97.6493 60.5427C96.379 64.5031 95.8221 64.9673 90.2515 65.1757L90.2062 65.1774C87.7183 65.2705 82.2084 65.4768 73.6623 63.3075C65.064 61.125 53.038 53.535 53.038 53.535Z" fill="url(#paint0_linear_101_379)"/>
<path d="M53.0947 53.5529C53.0947 53.5529 36.2814 40.4177 33.8154 39.521C31.3495 38.6243 26.7747 37.2567 20.1406 36.532C13.5065 35.8072 12.8785 36.0275 9.15589 37.3539C5.43328 38.6804 3.87306 42.6376 2.95364 45.2749C2.03423 47.9121 1.91324 67.5454 3.7009 69.3366C5.48857 71.1279 6.54049 72.6246 10.501 73.3718C14.4615 74.1191 25.924 73.3185 33.8154 71.7278C35.469 71.0525 37.1147 70.0719 38.0001 67.6179C38.8854 65.1639 38.9911 53.8497 38.5232 52.6727C38.0553 51.4958 37.3453 50.9551 36.2814 50.8046C35.0054 50.6546 34.4613 51.2244 33.9649 52.6727C33.8154 53.1958 33.9421 62.665 33.1429 65.6003C32.3437 68.5356 9.82838 70.0839 8.70754 66.7959C7.5867 63.508 7.21302 50.5057 8.48336 46.5452C9.7537 42.5847 10.3106 42.1206 15.8812 41.9122L15.9264 41.9105C18.4143 41.8174 23.9243 41.6111 32.4704 43.7804C41.0686 45.9629 53.0947 53.5529 53.0947 53.5529Z" fill="url(#paint1_linear_101_379)"/>
<path d="M53.0519 53.4602C53.0519 53.4602 39.9167 70.2735 39.02 72.7395C38.1233 75.2054 36.7557 79.7803 36.031 86.4143C35.3063 93.0484 35.5265 93.6764 36.853 97.399C38.1794 101.122 42.1367 102.682 44.7739 103.601C47.4112 104.521 67.0444 104.642 68.8357 102.854C70.6269 101.066 72.1236 100.014 72.8708 96.0539C73.6181 92.0934 72.8175 80.631 71.2269 72.7395C70.5515 71.0859 69.5709 69.4402 67.1169 68.5548C64.6629 67.6695 53.3487 67.5638 52.1718 68.0318C50.9948 68.4997 50.4541 69.2097 50.3036 70.2735C50.1536 71.5496 50.7235 72.0936 52.1718 72.59C52.6948 72.7395 62.1641 72.6128 65.0993 73.412C68.0346 74.2112 69.5829 96.7265 66.295 97.8474C63.007 98.9682 50.0047 99.3419 46.0442 98.0716C42.0838 96.8012 41.6196 96.2443 41.4112 90.6737L41.4095 90.6285C41.3164 88.1406 41.1101 82.6306 43.2794 74.0845C45.4619 65.4863 53.0519 53.4602 53.0519 53.4602Z" fill="url(#paint2_linear_101_379)"/>
<path d="M52.889 53.5925C52.889 53.5925 66.0242 36.7792 66.9209 34.3133C67.8176 31.8473 69.1852 27.2725 69.9099 20.6384C70.6347 14.0044 70.4144 13.3763 69.0879 9.6537C67.7615 5.9311 63.8043 4.37088 61.167 3.45146C58.5298 2.53205 38.8965 2.41106 37.1053 4.19872C35.314 5.98639 33.8173 7.03831 33.0701 10.9988C32.3228 14.9593 33.1234 26.4218 34.714 34.3133C35.3894 35.9669 36.37 37.6125 38.824 38.4979C41.278 39.3833 52.5922 39.4889 53.7691 39.021C54.9461 38.5531 55.4868 37.8431 55.6373 36.7792C55.7873 35.5032 55.2174 34.9591 53.7691 34.4627C53.2461 34.3133 43.7769 34.44 40.8416 33.6407C37.9063 32.8415 36.358 10.3262 39.646 9.20536C42.9339 8.08452 55.9362 7.71084 59.8967 8.98118C63.8571 10.2515 64.3213 10.8084 64.5297 16.379L64.5314 16.4243C64.6245 18.9122 64.8308 24.4221 62.6615 32.9682C60.479 41.5664 52.889 53.5925 52.889 53.5925Z" fill="url(#paint3_linear_101_379)"/>
<path d="M124.98 69V27H133.02L150.9 56.64H146.64L164.22 27H172.2L172.32 69H163.2L163.14 40.98H164.82L150.78 64.56H146.4L132.06 40.98H134.1V69H124.98ZM201.245 69.48C197.565 69.48 194.325 68.76 191.525 67.32C188.765 65.88 186.625 63.92 185.105 61.44C183.585 58.92 182.825 56.06 182.825 52.86C182.825 49.62 183.565 46.76 185.045 44.28C186.565 41.76 188.625 39.8 191.225 38.4C193.825 36.96 196.765 36.24 200.045 36.24C203.205 36.24 206.045 36.92 208.565 38.28C211.125 39.6 213.145 41.52 214.625 44.04C216.105 46.52 216.845 49.5 216.845 52.98C216.845 53.34 216.825 53.76 216.785 54.24C216.745 54.68 216.705 55.1 216.665 55.5H190.445V50.04H211.745L208.145 51.66C208.145 49.98 207.805 48.52 207.125 47.28C206.445 46.04 205.505 45.08 204.305 44.4C203.105 43.68 201.705 43.32 200.105 43.32C198.505 43.32 197.085 43.68 195.845 44.4C194.645 45.08 193.705 46.06 193.025 47.34C192.345 48.58 192.005 50.06 192.005 51.78V53.22C192.005 54.98 192.385 56.54 193.145 57.9C193.945 59.22 195.045 60.24 196.445 60.96C197.885 61.64 199.565 61.98 201.485 61.98C203.205 61.98 204.705 61.72 205.985 61.2C207.305 60.68 208.505 59.9 209.585 58.86L214.565 64.26C213.085 65.94 211.225 67.24 208.985 68.16C206.745 69.04 204.165 69.48 201.245 69.48ZM240.536 69.48C237.496 69.48 234.756 68.8 232.316 67.44C229.876 66.04 227.936 64.1 226.496 61.62C225.096 59.14 224.396 56.22 224.396 52.86C224.396 49.46 225.096 46.52 226.496 44.04C227.936 41.56 229.876 39.64 232.316 38.28C234.756 36.92 237.496 36.24 240.536 36.24C243.256 36.24 245.636 36.84 247.676 38.04C249.716 39.24 251.296 41.06 252.416 43.5C253.536 45.94 254.096 49.06 254.096 52.86C254.096 56.62 253.556 59.74 252.476 62.22C251.396 64.66 249.836 66.48 247.796 67.68C245.796 68.88 243.376 69.48 240.536 69.48ZM242.156 61.8C243.676 61.8 245.056 61.44 246.296 60.72C247.536 60 248.516 58.98 249.236 57.66C249.996 56.3 250.376 54.7 250.376 52.86C250.376 50.98 249.996 49.38 249.236 48.06C248.516 46.74 247.536 45.72 246.296 45C245.056 44.28 243.676 43.92 242.156 43.92C240.596 43.92 239.196 44.28 237.956 45C236.716 45.72 235.716 46.74 234.956 48.06C234.236 49.38 233.876 50.98 233.876 52.86C233.876 54.7 234.236 56.3 234.956 57.66C235.716 58.98 236.716 60 237.956 60.72C239.196 61.44 240.596 61.8 242.156 61.8ZM250.616 69V62.4L250.796 52.8L250.196 43.26V24.48H259.556V69H250.616ZM286.279 69.72C282.919 69.72 279.699 69.28 276.619 68.4C273.539 67.48 271.059 66.3 269.179 64.86L272.479 57.54C274.279 58.82 276.399 59.88 278.839 60.72C281.319 61.52 283.819 61.92 286.339 61.92C288.259 61.92 289.799 61.74 290.959 61.38C292.159 60.98 293.039 60.44 293.599 59.76C294.159 59.08 294.439 58.3 294.439 57.42C294.439 56.3 293.999 55.42 293.119 54.78C292.239 54.1 291.079 53.56 289.639 53.16C288.199 52.72 286.599 52.32 284.839 51.96C283.119 51.56 281.379 51.08 279.619 50.52C277.899 49.96 276.319 49.24 274.879 48.36C273.439 47.48 272.259 46.32 271.339 44.88C270.459 43.44 270.019 41.6 270.019 39.36C270.019 36.96 270.659 34.78 271.939 32.82C273.259 30.82 275.219 29.24 277.819 28.08C280.459 26.88 283.759 26.28 287.719 26.28C290.359 26.28 292.959 26.6 295.519 27.24C298.079 27.84 300.339 28.76 302.299 30L299.299 37.38C297.339 36.26 295.379 35.44 293.419 34.92C291.459 34.36 289.539 34.08 287.659 34.08C285.779 34.08 284.239 34.3 283.039 34.74C281.839 35.18 280.979 35.76 280.459 36.48C279.939 37.16 279.679 37.96 279.679 38.88C279.679 39.96 280.119 40.84 280.999 41.52C281.879 42.16 283.039 42.68 284.479 43.08C285.919 43.48 287.499 43.88 289.219 44.28C290.979 44.68 292.719 45.14 294.439 45.66C296.199 46.18 297.799 46.88 299.239 47.76C300.679 48.64 301.839 49.8 302.719 51.24C303.639 52.68 304.099 54.5 304.099 56.7C304.099 59.06 303.439 61.22 302.119 63.18C300.799 65.14 298.819 66.72 296.179 67.92C293.579 69.12 290.279 69.72 286.279 69.72ZM312.961 54.6V50.88H328.681V54.6H312.961ZM342.711 69V27H358.431C361.991 27 365.051 27.58 367.611 28.74C370.171 29.86 372.131 31.5 373.491 33.66C374.891 35.78 375.591 38.36 375.591 41.4C375.591 44.36 374.891 46.92 373.491 49.08C372.131 51.2 370.171 52.84 367.611 54C365.051 55.16 361.991 55.74 358.431 55.74H345.171L347.151 53.64V69H342.711ZM347.151 54L345.171 51.84H358.311C362.511 51.84 365.691 50.94 367.851 49.14C370.051 47.3 371.151 44.72 371.151 41.4C371.151 38.04 370.051 35.44 367.851 33.6C365.691 31.76 362.511 30.84 358.311 30.84H345.171L347.151 28.74V54ZM379.962 69L399.162 27H403.542L422.742 69H418.062L400.422 29.58H402.222L384.582 69H379.962ZM387.522 57.78L388.842 54.18H413.262L414.582 57.78H387.522ZM439.341 69V30.84H424.581V27H458.541V30.84H443.781V69H439.341ZM499.954 27H504.334V69H499.954V27ZM473.674 69H469.234V27H473.674V69ZM500.374 49.62H473.194V45.72H500.374V49.62Z" fill="#00B4D8"/>
<path d="M126.27 88.0271V79.6271H127.002L130.842 86.1791H130.458L134.262 79.6271H134.994V88.0271H134.142V80.9591H134.346L130.842 86.9591H130.422L126.894 80.9591H127.122V88.0271H126.27ZM140.227 88.0871C139.571 88.0871 138.995 87.9511 138.499 87.6791C138.003 87.3991 137.615 87.0191 137.335 86.5391C137.055 86.0511 136.915 85.4951 136.915 84.8711C136.915 84.2471 137.047 83.6951 137.311 83.2151C137.583 82.7351 137.951 82.3591 138.415 82.0871C138.887 81.8071 139.415 81.6671 139.999 81.6671C140.591 81.6671 141.115 81.8031 141.571 82.0751C142.035 82.3391 142.399 82.7151 142.663 83.2031C142.927 83.6831 143.059 84.2391 143.059 84.8711C143.059 84.9111 143.055 84.9551 143.047 85.0031C143.047 85.0431 143.047 85.0871 143.047 85.1351H137.563V84.4991H142.591L142.255 84.7511C142.255 84.2951 142.155 83.8911 141.955 83.5391C141.763 83.1791 141.499 82.8991 141.163 82.6991C140.827 82.4991 140.439 82.3991 139.999 82.3991C139.567 82.3991 139.179 82.4991 138.835 82.6991C138.491 82.8991 138.223 83.1791 138.031 83.5391C137.839 83.8991 137.743 84.3111 137.743 84.7751V84.9071C137.743 85.3871 137.847 85.8111 138.055 86.1791C138.271 86.5391 138.567 86.8231 138.943 87.0311C139.327 87.2311 139.763 87.3311 140.251 87.3311C140.635 87.3311 140.991 87.2631 141.319 87.1271C141.655 86.9911 141.943 86.7831 142.183 86.5031L142.663 87.0551C142.383 87.3911 142.031 87.6471 141.607 87.8231C141.191 87.9991 140.731 88.0871 140.227 88.0871ZM147.301 88.0871C146.701 88.0871 146.161 87.9511 145.681 87.6791C145.209 87.4071 144.837 87.0311 144.565 86.5511C144.293 86.0631 144.157 85.5031 144.157 84.8711C144.157 84.2311 144.293 83.6711 144.565 83.1911C144.837 82.7111 145.209 82.3391 145.681 82.0751C146.161 81.8031 146.701 81.6671 147.301 81.6671C147.853 81.6671 148.345 81.7911 148.777 82.0391C149.217 82.2871 149.565 82.6511 149.821 83.1311C150.085 83.6031 150.217 84.1831 150.217 84.8711C150.217 85.5511 150.089 86.1311 149.833 86.6111C149.577 87.0911 149.229 87.4591 148.789 87.7151C148.357 87.9631 147.861 88.0871 147.301 88.0871ZM147.361 87.3311C147.809 87.3311 148.209 87.2311 148.561 87.0311C148.921 86.8231 149.201 86.5351 149.401 86.1671C149.609 85.7911 149.713 85.3591 149.713 84.8711C149.713 84.3751 149.609 83.9431 149.401 83.5751C149.201 83.2071 148.921 82.9231 148.561 82.7231C148.209 82.5151 147.809 82.4111 147.361 82.4111C146.921 82.4111 146.525 82.5151 146.173 82.7231C145.821 82.9231 145.541 83.2071 145.333 83.5751C145.125 83.9431 145.021 84.3751 145.021 84.8711C145.021 85.3591 145.125 85.7911 145.333 86.1671C145.541 86.5351 145.821 86.8231 146.173 87.0311C146.525 87.2311 146.921 87.3311 147.361 87.3311ZM149.737 88.0271V86.1311L149.821 84.8591L149.701 83.5871V79.1231H150.553V88.0271H149.737ZM152.926 88.0271V81.7271H153.778V88.0271H152.926ZM153.358 80.3351C153.182 80.3351 153.034 80.2751 152.914 80.1551C152.794 80.0351 152.734 79.8911 152.734 79.7231C152.734 79.5551 152.794 79.4151 152.914 79.3031C153.034 79.1831 153.182 79.1231 153.358 79.1231C153.534 79.1231 153.682 79.1791 153.802 79.2911C153.922 79.4031 153.982 79.5431 153.982 79.7111C153.982 79.8871 153.922 80.0351 153.802 80.1551C153.69 80.2751 153.542 80.3351 153.358 80.3351ZM158.764 88.0871C158.14 88.0871 157.58 87.9511 157.084 87.6791C156.596 87.3991 156.212 87.0191 155.932 86.5391C155.652 86.0511 155.512 85.4951 155.512 84.8711C155.512 84.2391 155.652 83.6831 155.932 83.2031C156.212 82.7231 156.596 82.3471 157.084 82.0751C157.58 81.8031 158.14 81.6671 158.764 81.6671C159.3 81.6671 159.784 81.7711 160.216 81.9791C160.648 82.1871 160.988 82.4991 161.236 82.9151L160.6 83.3471C160.384 83.0271 160.116 82.7911 159.796 82.6391C159.476 82.4871 159.128 82.4111 158.752 82.4111C158.304 82.4111 157.9 82.5151 157.54 82.7231C157.18 82.9231 156.896 83.2071 156.688 83.5751C156.48 83.9431 156.376 84.3751 156.376 84.8711C156.376 85.3671 156.48 85.7991 156.688 86.1671C156.896 86.5351 157.18 86.8231 157.54 87.0311C157.9 87.2311 158.304 87.3311 158.752 87.3311C159.128 87.3311 159.476 87.2551 159.796 87.1031C160.116 86.9511 160.384 86.7191 160.6 86.4071L161.236 86.8391C160.988 87.2471 160.648 87.5591 160.216 87.7751C159.784 87.9831 159.3 88.0871 158.764 88.0871ZM166.858 88.0271V86.6351L166.822 86.4071V84.0791C166.822 83.5431 166.67 83.1311 166.366 82.8431C166.07 82.5551 165.626 82.4111 165.034 82.4111C164.626 82.4111 164.238 82.4791 163.87 82.6151C163.502 82.7511 163.19 82.9311 162.934 83.1551L162.55 82.5191C162.87 82.2471 163.254 82.0391 163.702 81.8951C164.15 81.7431 164.622 81.6671 165.118 81.6671C165.934 81.6671 166.562 81.8711 167.002 82.2791C167.45 82.6791 167.674 83.2911 167.674 84.1151V88.0271H166.858ZM164.686 88.0871C164.214 88.0871 163.802 88.0111 163.45 87.8591C163.106 87.6991 162.842 87.4831 162.658 87.2111C162.474 86.9311 162.382 86.6111 162.382 86.2511C162.382 85.9231 162.458 85.6271 162.61 85.3631C162.77 85.0911 163.026 84.8751 163.378 84.7151C163.738 84.5471 164.218 84.4631 164.818 84.4631H166.99V85.0991H164.842C164.234 85.0991 163.81 85.2071 163.57 85.4231C163.338 85.6391 163.222 85.9071 163.222 86.2271C163.222 86.5871 163.362 86.8751 163.642 87.0911C163.922 87.3071 164.314 87.4151 164.818 87.4151C165.298 87.4151 165.71 87.3071 166.054 87.0911C166.406 86.8671 166.662 86.5471 166.822 86.1311L167.014 86.7191C166.854 87.1351 166.574 87.4671 166.174 87.7151C165.782 87.9631 165.286 88.0871 164.686 88.0871ZM169.988 88.0271V79.1231H170.84V88.0271H169.988ZM178.847 88.0991C178.223 88.0991 177.623 87.9991 177.047 87.7991C176.479 87.5911 176.039 87.3271 175.727 87.0071L176.075 86.3231C176.371 86.6111 176.767 86.8551 177.263 87.0551C177.767 87.2471 178.295 87.3431 178.847 87.3431C179.375 87.3431 179.803 87.2791 180.131 87.1511C180.467 87.0151 180.711 86.8351 180.863 86.6111C181.023 86.3871 181.103 86.1391 181.103 85.8671C181.103 85.5391 181.007 85.2751 180.815 85.0751C180.631 84.8751 180.387 84.7191 180.083 84.6071C179.779 84.4871 179.443 84.3831 179.075 84.2951C178.707 84.2071 178.339 84.1151 177.971 84.0191C177.603 83.9151 177.263 83.7791 176.951 83.6111C176.647 83.4431 176.399 83.2231 176.207 82.9511C176.023 82.6711 175.931 82.3071 175.931 81.8591C175.931 81.4431 176.039 81.0631 176.255 80.7191C176.479 80.3671 176.819 80.0871 177.275 79.8791C177.731 79.6631 178.315 79.5551 179.027 79.5551C179.499 79.5551 179.967 79.6231 180.431 79.7591C180.895 79.8871 181.295 80.0671 181.631 80.2991L181.331 81.0071C180.971 80.7671 180.587 80.5911 180.179 80.4791C179.779 80.3671 179.391 80.3111 179.015 80.3111C178.511 80.3111 178.095 80.3791 177.767 80.5151C177.439 80.6511 177.195 80.8351 177.035 81.0671C176.883 81.2911 176.807 81.5471 176.807 81.8351C176.807 82.1631 176.899 82.4271 177.083 82.6271C177.275 82.8271 177.523 82.9831 177.827 83.0951C178.139 83.2071 178.479 83.3071 178.847 83.3951C179.215 83.4831 179.579 83.5791 179.939 83.6831C180.307 83.7871 180.643 83.9231 180.947 84.0911C181.259 84.2511 181.507 84.4671 181.691 84.7391C181.883 85.0111 181.979 85.3671 181.979 85.8071C181.979 86.2151 181.867 86.5951 181.643 86.9471C181.419 87.2911 181.075 87.5711 180.611 87.7871C180.155 87.9951 179.567 88.0991 178.847 88.0991ZM185.726 88.0871C185.134 88.0871 184.678 87.9271 184.358 87.6071C184.038 87.2871 183.878 86.8351 183.878 86.2511V80.3351H184.73V86.2031C184.73 86.5711 184.822 86.8551 185.006 87.0551C185.198 87.2551 185.47 87.3551 185.822 87.3551C186.198 87.3551 186.51 87.2471 186.758 87.0311L187.058 87.6431C186.89 87.7951 186.686 87.9071 186.446 87.9791C186.214 88.0511 185.974 88.0871 185.726 88.0871ZM182.75 82.4351V81.7271H186.65V82.4351H182.75ZM191.213 88.0871C190.677 88.0871 190.209 87.9871 189.809 87.7871C189.409 87.5871 189.097 87.2871 188.873 86.8871C188.657 86.4871 188.549 85.9871 188.549 85.3871V81.7271H189.401V85.2911C189.401 85.9631 189.565 86.4711 189.893 86.8151C190.229 87.1511 190.697 87.3191 191.297 87.3191C191.737 87.3191 192.117 87.2311 192.437 87.0551C192.765 86.8711 193.013 86.6071 193.181 86.2631C193.357 85.9191 193.445 85.5071 193.445 85.0271V81.7271H194.297V88.0271H193.481V86.2991L193.613 86.6111C193.413 87.0751 193.101 87.4391 192.677 87.7031C192.261 87.9591 191.773 88.0871 191.213 88.0871ZM199.18 88.0871C198.58 88.0871 198.04 87.9511 197.56 87.6791C197.088 87.4071 196.716 87.0311 196.444 86.5511C196.172 86.0631 196.036 85.5031 196.036 84.8711C196.036 84.2311 196.172 83.6711 196.444 83.1911C196.716 82.7111 197.088 82.3391 197.56 82.0751C198.04 81.8031 198.58 81.6671 199.18 81.6671C199.732 81.6671 200.224 81.7911 200.656 82.0391C201.096 82.2871 201.444 82.6511 201.7 83.1311C201.964 83.6031 202.096 84.1831 202.096 84.8711C202.096 85.5511 201.968 86.1311 201.712 86.6111C201.456 87.0911 201.108 87.4591 200.668 87.7151C200.236 87.9631 199.74 88.0871 199.18 88.0871ZM199.24 87.3311C199.688 87.3311 200.088 87.2311 200.44 87.0311C200.8 86.8231 201.08 86.5351 201.28 86.1671C201.488 85.7911 201.592 85.3591 201.592 84.8711C201.592 84.3751 201.488 83.9431 201.28 83.5751C201.08 83.2071 200.8 82.9231 200.44 82.7231C200.088 82.5151 199.688 82.4111 199.24 82.4111C198.8 82.4111 198.404 82.5151 198.052 82.7231C197.7 82.9231 197.42 83.2071 197.212 83.5751C197.004 83.9431 196.9 84.3751 196.9 84.8711C196.9 85.3591 197.004 85.7911 197.212 86.1671C197.42 86.5351 197.7 86.8231 198.052 87.0311C198.404 87.2311 198.8 87.3311 199.24 87.3311ZM201.616 88.0271V86.1311L201.7 84.8591L201.58 83.5871V79.1231H202.432V88.0271H201.616ZM207.481 88.0871C206.825 88.0871 206.249 87.9511 205.753 87.6791C205.257 87.3991 204.869 87.0191 204.589 86.5391C204.309 86.0511 204.169 85.4951 204.169 84.8711C204.169 84.2471 204.301 83.6951 204.565 83.2151C204.837 82.7351 205.205 82.3591 205.669 82.0871C206.141 81.8071 206.669 81.6671 207.253 81.6671C207.845 81.6671 208.369 81.8031 208.825 82.0751C209.289 82.3391 209.653 82.7151 209.917 83.2031C210.181 83.6831 210.313 84.2391 210.313 84.8711C210.313 84.9111 210.309 84.9551 210.301 85.0031C210.301 85.0431 210.301 85.0871 210.301 85.1351H204.817V84.4991H209.845L209.509 84.7511C209.509 84.2951 209.409 83.8911 209.209 83.5391C209.017 83.1791 208.753 82.8991 208.417 82.6991C208.081 82.4991 207.693 82.3991 207.253 82.3991C206.821 82.3991 206.433 82.4991 206.089 82.6991C205.745 82.8991 205.477 83.1791 205.285 83.5391C205.093 83.8991 204.997 84.3111 204.997 84.7751V84.9071C204.997 85.3871 205.101 85.8111 205.309 86.1791C205.525 86.5391 205.821 86.8231 206.197 87.0311C206.581 87.2311 207.017 87.3311 207.505 87.3311C207.889 87.3311 208.245 87.2631 208.573 87.1271C208.909 86.9911 209.197 86.7831 209.437 86.5031L209.917 87.0551C209.637 87.3911 209.285 87.6471 208.861 87.8231C208.445 87.9991 207.985 88.0871 207.481 88.0871ZM215.263 81.6671C215.775 81.6671 216.223 81.7671 216.607 81.9671C216.999 82.1591 217.303 82.4551 217.519 82.8551C217.743 83.2551 217.855 83.7591 217.855 84.3671V88.0271H217.003V84.4511C217.003 83.7871 216.835 83.2871 216.499 82.9511C216.171 82.6071 215.707 82.4351 215.107 82.4351C214.659 82.4351 214.267 82.5271 213.931 82.7111C213.603 82.8871 213.347 83.1471 213.163 83.4911C212.987 83.8271 212.899 84.2351 212.899 84.7151V88.0271H212.047V81.7271H212.863V83.4551L212.731 83.1311C212.931 82.6751 213.251 82.3191 213.691 82.0631C214.131 81.7991 214.655 81.6671 215.263 81.6671ZM222.148 88.0871C221.556 88.0871 221.1 87.9271 220.78 87.6071C220.46 87.2871 220.3 86.8351 220.3 86.2511V80.3351H221.152V86.2031C221.152 86.5711 221.244 86.8551 221.428 87.0551C221.62 87.2551 221.892 87.3551 222.244 87.3551C222.62 87.3551 222.932 87.2471 223.18 87.0311L223.48 87.6431C223.312 87.7951 223.108 87.9071 222.868 87.9791C222.636 88.0511 222.396 88.0871 222.148 88.0871ZM219.172 82.4351V81.7271H223.072V82.4351H219.172ZM226.723 88.0871C226.203 88.0871 225.711 88.0151 225.247 87.8711C224.783 87.7191 224.419 87.5311 224.155 87.3071L224.539 86.6351C224.795 86.8271 225.123 86.9951 225.523 87.1391C225.923 87.2751 226.343 87.3431 226.783 87.3431C227.383 87.3431 227.815 87.2511 228.079 87.0671C228.343 86.8751 228.475 86.6231 228.475 86.3111C228.475 86.0791 228.399 85.8991 228.247 85.7711C228.103 85.6351 227.911 85.5351 227.671 85.4711C227.431 85.3991 227.163 85.3391 226.867 85.2911C226.571 85.2431 226.275 85.1871 225.979 85.1231C225.691 85.0591 225.427 84.9671 225.187 84.8471C224.947 84.7191 224.751 84.5471 224.599 84.3311C224.455 84.1151 224.383 83.8271 224.383 83.4671C224.383 83.1231 224.479 82.8151 224.671 82.5431C224.863 82.2711 225.143 82.0591 225.511 81.9071C225.887 81.7471 226.343 81.6671 226.879 81.6671C227.287 81.6671 227.695 81.7231 228.103 81.8351C228.511 81.9391 228.847 82.0791 229.111 82.2551L228.739 82.9391C228.459 82.7471 228.159 82.6111 227.839 82.5311C227.519 82.4431 227.199 82.3991 226.879 82.3991C226.311 82.3991 225.891 82.4991 225.619 82.6991C225.355 82.8911 225.223 83.1391 225.223 83.4431C225.223 83.6831 225.295 83.8711 225.439 84.0071C225.591 84.1431 225.787 84.2511 226.027 84.3311C226.275 84.4031 226.543 84.4631 226.831 84.5111C227.127 84.5591 227.419 84.6191 227.707 84.6911C228.003 84.7551 228.271 84.8471 228.511 84.9671C228.759 85.0791 228.955 85.2431 229.099 85.4591C229.251 85.6671 229.327 85.9431 229.327 86.2871C229.327 86.6551 229.223 86.9751 229.015 87.2471C228.815 87.5111 228.519 87.7191 228.127 87.8711C227.743 88.0151 227.275 88.0871 226.723 88.0871ZM230.591 82.7951L230.531 79.6271H231.287L231.227 82.7951H230.591ZM236.637 88.0271V79.6271H239.781C240.493 79.6271 241.105 79.7431 241.617 79.9751C242.129 80.1991 242.521 80.5271 242.793 80.9591C243.073 81.3831 243.213 81.8991 243.213 82.5071C243.213 83.0991 243.073 83.6111 242.793 84.0431C242.521 84.4671 242.129 84.7951 241.617 85.0271C241.105 85.2591 240.493 85.3751 239.781 85.3751H237.129L237.525 84.9551V88.0271H236.637ZM237.525 85.0271L237.129 84.5951H239.757C240.597 84.5951 241.233 84.4151 241.665 84.0551C242.105 83.6871 242.325 83.1711 242.325 82.5071C242.325 81.8351 242.105 81.3151 241.665 80.9471C241.233 80.5791 240.597 80.3951 239.757 80.3951H237.129L237.525 79.9751V85.0271ZM247.594 88.0871C246.938 88.0871 246.362 87.9511 245.866 87.6791C245.37 87.3991 244.982 87.0191 244.702 86.5391C244.422 86.0511 244.282 85.4951 244.282 84.8711C244.282 84.2471 244.414 83.6951 244.678 83.2151C244.95 82.7351 245.318 82.3591 245.782 82.0871C246.254 81.8071 246.782 81.6671 247.366 81.6671C247.958 81.6671 248.482 81.8031 248.938 82.0751C249.402 82.3391 249.766 82.7151 250.03 83.2031C250.294 83.6831 250.426 84.2391 250.426 84.8711C250.426 84.9111 250.422 84.9551 250.414 85.0031C250.414 85.0431 250.414 85.0871 250.414 85.1351H244.93V84.4991H249.958L249.622 84.7511C249.622 84.2951 249.522 83.8911 249.322 83.5391C249.13 83.1791 248.866 82.8991 248.53 82.6991C248.194 82.4991 247.806 82.3991 247.366 82.3991C246.934 82.3991 246.546 82.4991 246.202 82.6991C245.858 82.8991 245.59 83.1791 245.398 83.5391C245.206 83.8991 245.11 84.3111 245.11 84.7751V84.9071C245.11 85.3871 245.214 85.8111 245.422 86.1791C245.638 86.5391 245.934 86.8231 246.31 87.0311C246.694 87.2311 247.13 87.3311 247.618 87.3311C248.002 87.3311 248.358 87.2631 248.686 87.1271C249.022 86.9911 249.31 86.7831 249.55 86.5031L250.03 87.0551C249.75 87.3911 249.398 87.6471 248.974 87.8231C248.558 87.9991 248.098 88.0871 247.594 88.0871ZM252.16 88.0271V81.7271H252.976V83.4431L252.892 83.1431C253.068 82.6631 253.364 82.2991 253.78 82.0511C254.196 81.7951 254.712 81.6671 255.328 81.6671V82.4951C255.296 82.4951 255.264 82.4951 255.232 82.4951C255.2 82.4871 255.168 82.4831 255.136 82.4831C254.472 82.4831 253.952 82.6871 253.576 83.0951C253.2 83.4951 253.012 84.0671 253.012 84.8111V88.0271H252.16ZM258.645 88.0871C258.125 88.0871 257.633 88.0151 257.169 87.8711C256.705 87.7191 256.341 87.5311 256.077 87.3071L256.461 86.6351C256.717 86.8271 257.045 86.9951 257.445 87.1391C257.845 87.2751 258.265 87.3431 258.705 87.3431C259.305 87.3431 259.737 87.2511 260.001 87.0671C260.265 86.8751 260.397 86.6231 260.397 86.3111C260.397 86.0791 260.321 85.8991 260.169 85.7711C260.025 85.6351 259.833 85.5351 259.593 85.4711C259.353 85.3991 259.085 85.3391 258.789 85.2911C258.493 85.2431 258.197 85.1871 257.901 85.1231C257.613 85.0591 257.349 84.9671 257.109 84.8471C256.869 84.7191 256.673 84.5471 256.521 84.3311C256.377 84.1151 256.305 83.8271 256.305 83.4671C256.305 83.1231 256.401 82.8151 256.593 82.5431C256.785 82.2711 257.065 82.0591 257.433 81.9071C257.809 81.7471 258.265 81.6671 258.801 81.6671C259.209 81.6671 259.617 81.7231 260.025 81.8351C260.433 81.9391 260.769 82.0791 261.033 82.2551L260.661 82.9391C260.381 82.7471 260.081 82.6111 259.761 82.5311C259.441 82.4431 259.121 82.3991 258.801 82.3991C258.233 82.3991 257.813 82.4991 257.541 82.6991C257.277 82.8911 257.145 83.1391 257.145 83.4431C257.145 83.6831 257.217 83.8711 257.361 84.0071C257.513 84.1431 257.709 84.2511 257.949 84.3311C258.197 84.4031 258.465 84.4631 258.753 84.5111C259.049 84.5591 259.341 84.6191 259.629 84.6911C259.925 84.7551 260.193 84.8471 260.433 84.9671C260.681 85.0791 260.877 85.2431 261.021 85.4591C261.173 85.6671 261.249 85.9431 261.249 86.2871C261.249 86.6551 261.145 86.9751 260.937 87.2471C260.737 87.5111 260.441 87.7191 260.049 87.8711C259.665 88.0151 259.197 88.0871 258.645 88.0871ZM265.38 88.0871C264.772 88.0871 264.224 87.9511 263.736 87.6791C263.256 87.3991 262.876 87.0191 262.596 86.5391C262.316 86.0511 262.176 85.4951 262.176 84.8711C262.176 84.2391 262.316 83.6831 262.596 83.2031C262.876 82.7231 263.256 82.3471 263.736 82.0751C264.216 81.8031 264.764 81.6671 265.38 81.6671C266.004 81.6671 266.556 81.8031 267.036 82.0751C267.524 82.3471 267.904 82.7231 268.176 83.2031C268.456 83.6831 268.596 84.2391 268.596 84.8711C268.596 85.4951 268.456 86.0511 268.176 86.5391C267.904 87.0191 267.524 87.3991 267.036 87.6791C266.548 87.9511 265.996 88.0871 265.38 88.0871ZM265.38 87.3311C265.836 87.3311 266.24 87.2311 266.592 87.0311C266.944 86.8231 267.22 86.5351 267.42 86.1671C267.628 85.7911 267.732 85.3591 267.732 84.8711C267.732 84.3751 267.628 83.9431 267.42 83.5751C267.22 83.2071 266.944 82.9231 266.592 82.7231C266.24 82.5151 265.84 82.4111 265.392 82.4111C264.944 82.4111 264.544 82.5151 264.192 82.7231C263.84 82.9231 263.56 83.2071 263.352 83.5751C263.144 83.9431 263.04 84.3751 263.04 84.8711C263.04 85.3591 263.144 85.7911 263.352 86.1671C263.56 86.5351 263.84 86.8231 264.192 87.0311C264.544 87.2311 264.94 87.3311 265.38 87.3311ZM273.552 81.6671C274.064 81.6671 274.512 81.7671 274.896 81.9671C275.288 82.1591 275.592 82.4551 275.808 82.8551C276.032 83.2551 276.144 83.7591 276.144 84.3671V88.0271H275.292V84.4511C275.292 83.7871 275.124 83.2871 274.788 82.9511C274.46 82.6071 273.996 82.4351 273.396 82.4351C272.948 82.4351 272.556 82.5271 272.22 82.7111C271.892 82.8871 271.636 83.1471 271.452 83.4911C271.276 83.8271 271.188 84.2351 271.188 84.7151V88.0271H270.336V81.7271H271.152V83.4551L271.02 83.1311C271.22 82.6751 271.54 82.3191 271.98 82.0631C272.42 81.7991 272.944 81.6671 273.552 81.6671ZM282.393 88.0271V86.6351L282.357 86.4071V84.0791C282.357 83.5431 282.205 83.1311 281.901 82.8431C281.605 82.5551 281.161 82.4111 280.569 82.4111C280.161 82.4111 279.773 82.4791 279.405 82.6151C279.037 82.7511 278.725 82.9311 278.469 83.1551L278.085 82.5191C278.405 82.2471 278.789 82.0391 279.237 81.8951C279.685 81.7431 280.157 81.6671 280.653 81.6671C281.469 81.6671 282.097 81.8711 282.537 82.2791C282.985 82.6791 283.209 83.2911 283.209 84.1151V88.0271H282.393ZM280.221 88.0871C279.749 88.0871 279.337 88.0111 278.985 87.8591C278.641 87.6991 278.377 87.4831 278.193 87.2111C278.009 86.9311 277.917 86.6111 277.917 86.2511C277.917 85.9231 277.993 85.6271 278.145 85.3631C278.305 85.0911 278.561 84.8751 278.913 84.7151C279.273 84.5471 279.753 84.4631 280.353 84.4631H282.525V85.0991H280.377C279.769 85.0991 279.345 85.2071 279.105 85.4231C278.873 85.6391 278.757 85.9071 278.757 86.2271C278.757 86.5871 278.897 86.8751 279.177 87.0911C279.457 87.3071 279.849 87.4151 280.353 87.4151C280.833 87.4151 281.245 87.3071 281.589 87.0911C281.941 86.8671 282.197 86.5471 282.357 86.1311L282.549 86.7191C282.389 87.1351 282.109 87.4671 281.709 87.7151C281.317 87.9631 280.821 88.0871 280.221 88.0871ZM285.523 88.0271V79.1231H286.375V88.0271H285.523ZM288.746 88.0271V81.7271H289.598V88.0271H288.746ZM289.178 80.3351C289.002 80.3351 288.854 80.2751 288.734 80.1551C288.614 80.0351 288.554 79.8911 288.554 79.7231C288.554 79.5551 288.614 79.4151 288.734 79.3031C288.854 79.1831 289.002 79.1231 289.178 79.1231C289.354 79.1231 289.502 79.1791 289.622 79.2911C289.742 79.4031 289.802 79.5431 289.802 79.7111C289.802 79.8871 289.742 80.0351 289.622 80.1551C289.51 80.2751 289.362 80.3351 289.178 80.3351ZM291.285 88.0271V87.4631L295.485 82.1471L295.665 82.4351H291.357V81.7271H296.337V82.2791L292.149 87.6071L291.933 87.3191H296.421V88.0271H291.285ZM300.668 88.0871C300.012 88.0871 299.436 87.9511 298.94 87.6791C298.444 87.3991 298.056 87.0191 297.776 86.5391C297.496 86.0511 297.356 85.4951 297.356 84.8711C297.356 84.2471 297.488 83.6951 297.752 83.2151C298.024 82.7351 298.392 82.3591 298.856 82.0871C299.328 81.8071 299.856 81.6671 300.44 81.6671C301.032 81.6671 301.556 81.8031 302.012 82.0751C302.476 82.3391 302.84 82.7151 303.104 83.2031C303.368 83.6831 303.5 84.2391 303.5 84.8711C303.5 84.9111 303.496 84.9551 303.488 85.0031C303.488 85.0431 303.488 85.0871 303.488 85.1351H298.004V84.4991H303.032L302.696 84.7511C302.696 84.2951 302.596 83.8911 302.396 83.5391C302.204 83.1791 301.94 82.8991 301.604 82.6991C301.268 82.4991 300.88 82.3991 300.44 82.3991C300.008 82.3991 299.62 82.4991 299.276 82.6991C298.932 82.8991 298.664 83.1791 298.472 83.5391C298.28 83.8991 298.184 84.3111 298.184 84.7751V84.9071C298.184 85.3871 298.288 85.8111 298.496 86.1791C298.712 86.5391 299.008 86.8231 299.384 87.0311C299.768 87.2311 300.204 87.3311 300.692 87.3311C301.076 87.3311 301.432 87.2631 301.76 87.1271C302.096 86.9911 302.384 86.7831 302.624 86.5031L303.104 87.0551C302.824 87.3911 302.472 87.6471 302.048 87.8231C301.632 87.9991 301.172 88.0871 300.668 88.0871ZM307.742 88.0871C307.142 88.0871 306.602 87.9511 306.122 87.6791C305.65 87.4071 305.278 87.0311 305.006 86.5511C304.734 86.0631 304.598 85.5031 304.598 84.8711C304.598 84.2311 304.734 83.6711 305.006 83.1911C305.278 82.7111 305.65 82.3391 306.122 82.0751C306.602 81.8031 307.142 81.6671 307.742 81.6671C308.294 81.6671 308.786 81.7911 309.218 82.0391C309.658 82.2871 310.006 82.6511 310.262 83.1311C310.526 83.6031 310.658 84.1831 310.658 84.8711C310.658 85.5511 310.53 86.1311 310.274 86.6111C310.018 87.0911 309.67 87.4591 309.23 87.7151C308.798 87.9631 308.302 88.0871 307.742 88.0871ZM307.802 87.3311C308.25 87.3311 308.65 87.2311 309.002 87.0311C309.362 86.8231 309.642 86.5351 309.842 86.1671C310.05 85.7911 310.154 85.3591 310.154 84.8711C310.154 84.3751 310.05 83.9431 309.842 83.5751C309.642 83.2071 309.362 82.9231 309.002 82.7231C308.65 82.5151 308.25 82.4111 307.802 82.4111C307.362 82.4111 306.966 82.5151 306.614 82.7231C306.262 82.9231 305.982 83.2071 305.774 83.5751C305.566 83.9431 305.462 84.3751 305.462 84.8711C305.462 85.3591 305.566 85.7911 305.774 86.1671C305.982 86.5351 306.262 86.8231 306.614 87.0311C306.966 87.2311 307.362 87.3311 307.802 87.3311ZM310.178 88.0271V86.1311L310.262 84.8591L310.142 83.5871V79.1231H310.994V88.0271H310.178ZM315.344 88.0271L319.184 79.6271H320.06L323.9 88.0271H322.964L319.436 80.1431H319.796L316.268 88.0271H315.344ZM316.856 85.7831L317.12 85.0631H322.004L322.268 85.7831H316.856ZM326.743 88.0871C326.223 88.0871 325.731 88.0151 325.267 87.8711C324.803 87.7191 324.439 87.5311 324.175 87.3071L324.559 86.6351C324.815 86.8271 325.143 86.9951 325.543 87.1391C325.943 87.2751 326.363 87.3431 326.803 87.3431C327.403 87.3431 327.835 87.2511 328.099 87.0671C328.363 86.8751 328.495 86.6231 328.495 86.3111C328.495 86.0791 328.419 85.8991 328.267 85.7711C328.123 85.6351 327.931 85.5351 327.691 85.4711C327.451 85.3991 327.183 85.3391 326.887 85.2911C326.591 85.2431 326.295 85.1871 325.999 85.1231C325.711 85.0591 325.447 84.9671 325.207 84.8471C324.967 84.7191 324.771 84.5471 324.619 84.3311C324.475 84.1151 324.403 83.8271 324.403 83.4671C324.403 83.1231 324.499 82.8151 324.691 82.5431C324.883 82.2711 325.163 82.0591 325.531 81.9071C325.907 81.7471 326.363 81.6671 326.899 81.6671C327.307 81.6671 327.715 81.7231 328.123 81.8351C328.531 81.9391 328.867 82.0791 329.131 82.2551L328.759 82.9391C328.479 82.7471 328.179 82.6111 327.859 82.5311C327.539 82.4431 327.219 82.3991 326.899 82.3991C326.331 82.3991 325.911 82.4991 325.639 82.6991C325.375 82.8911 325.243 83.1391 325.243 83.4431C325.243 83.6831 325.315 83.8711 325.459 84.0071C325.611 84.1431 325.807 84.2511 326.047 84.3311C326.295 84.4031 326.563 84.4631 326.851 84.5111C327.147 84.5591 327.439 84.6191 327.727 84.6911C328.023 84.7551 328.291 84.8471 328.531 84.9671C328.779 85.0791 328.975 85.2431 329.119 85.4591C329.271 85.6671 329.347 85.9431 329.347 86.2871C329.347 86.6551 329.243 86.9751 329.035 87.2471C328.835 87.5111 328.539 87.7191 328.147 87.8711C327.763 88.0151 327.295 88.0871 326.743 88.0871ZM332.602 88.0871C332.082 88.0871 331.59 88.0151 331.126 87.8711C330.662 87.7191 330.298 87.5311 330.034 87.3071L330.418 86.6351C330.674 86.8271 331.002 86.9951 331.402 87.1391C331.802 87.2751 332.222 87.3431 332.662 87.3431C333.262 87.3431 333.694 87.2511 333.958 87.0671C334.222 86.8751 334.354 86.6231 334.354 86.3111C334.354 86.0791 334.278 85.8991 334.126 85.7711C333.982 85.6351 333.79 85.5351 333.55 85.4711C333.31 85.3991 333.042 85.3391 332.746 85.2911C332.45 85.2431 332.154 85.1871 331.858 85.1231C331.57 85.0591 331.306 84.9671 331.066 84.8471C330.826 84.7191 330.63 84.5471 330.478 84.3311C330.334 84.1151 330.262 83.8271 330.262 83.4671C330.262 83.1231 330.358 82.8151 330.55 82.5431C330.742 82.2711 331.022 82.0591 331.39 81.9071C331.766 81.7471 332.222 81.6671 332.758 81.6671C333.166 81.6671 333.574 81.7231 333.982 81.8351C334.39 81.9391 334.726 82.0791 334.99 82.2551L334.618 82.9391C334.338 82.7471 334.038 82.6111 333.718 82.5311C333.398 82.4431 333.078 82.3991 332.758 82.3991C332.19 82.3991 331.77 82.4991 331.498 82.6991C331.234 82.8911 331.102 83.1391 331.102 83.4431C331.102 83.6831 331.174 83.8711 331.318 84.0071C331.47 84.1431 331.666 84.2511 331.906 84.3311C332.154 84.4031 332.422 84.4631 332.71 84.5111C333.006 84.5591 333.298 84.6191 333.586 84.6911C333.882 84.7551 334.15 84.8471 334.39 84.9671C334.638 85.0791 334.834 85.2431 334.978 85.4591C335.13 85.6671 335.206 85.9431 335.206 86.2871C335.206 86.6551 335.102 86.9751 334.894 87.2471C334.694 87.5111 334.398 87.7191 334.006 87.8711C333.622 88.0151 333.154 88.0871 332.602 88.0871ZM339.445 88.0871C338.789 88.0871 338.213 87.9511 337.717 87.6791C337.221 87.3991 336.833 87.0191 336.553 86.5391C336.273 86.0511 336.133 85.4951 336.133 84.8711C336.133 84.2471 336.265 83.6951 336.529 83.2151C336.801 82.7351 337.169 82.3591 337.633 82.0871C338.105 81.8071 338.633 81.6671 339.217 81.6671C339.809 81.6671 340.333 81.8031 340.789 82.0751C341.253 82.3391 341.617 82.7151 341.881 83.2031C342.145 83.6831 342.277 84.2391 342.277 84.8711C342.277 84.9111 342.273 84.9551 342.265 85.0031C342.265 85.0431 342.265 85.0871 342.265 85.1351H336.781V84.4991H341.809L341.473 84.7511C341.473 84.2951 341.373 83.8911 341.173 83.5391C340.981 83.1791 340.717 82.8991 340.381 82.6991C340.045 82.4991 339.657 82.3991 339.217 82.3991C338.785 82.3991 338.397 82.4991 338.053 82.6991C337.709 82.8991 337.441 83.1791 337.249 83.5391C337.057 83.8991 336.961 84.3111 336.961 84.7751V84.9071C336.961 85.3871 337.065 85.8111 337.273 86.1791C337.489 86.5391 337.785 86.8231 338.161 87.0311C338.545 87.2311 338.981 87.3311 339.469 87.3311C339.853 87.3311 340.209 87.2631 340.537 87.1271C340.873 86.9911 341.161 86.7831 341.401 86.5031L341.881 87.0551C341.601 87.3911 341.249 87.6471 340.825 87.8231C340.409 87.9991 339.949 88.0871 339.445 88.0871ZM345.704 88.0871C345.184 88.0871 344.692 88.0151 344.228 87.8711C343.764 87.7191 343.4 87.5311 343.136 87.3071L343.52 86.6351C343.776 86.8271 344.104 86.9951 344.504 87.1391C344.904 87.2751 345.324 87.3431 345.764 87.3431C346.364 87.3431 346.796 87.2511 347.06 87.0671C347.324 86.8751 347.456 86.6231 347.456 86.3111C347.456 86.0791 347.38 85.8991 347.228 85.7711C347.084 85.6351 346.892 85.5351 346.652 85.4711C346.412 85.3991 346.144 85.3391 345.848 85.2911C345.552 85.2431 345.256 85.1871 344.96 85.1231C344.672 85.0591 344.408 84.9671 344.168 84.8471C343.928 84.7191 343.732 84.5471 343.58 84.3311C343.436 84.1151 343.364 83.8271 343.364 83.4671C343.364 83.1231 343.46 82.8151 343.652 82.5431C343.844 82.2711 344.124 82.0591 344.492 81.9071C344.868 81.7471 345.324 81.6671 345.86 81.6671C346.268 81.6671 346.676 81.7231 347.084 81.8351C347.492 81.9391 347.828 82.0791 348.092 82.2551L347.72 82.9391C347.44 82.7471 347.14 82.6111 346.82 82.5311C346.5 82.4431 346.18 82.3991 345.86 82.3991C345.292 82.3991 344.872 82.4991 344.6 82.6991C344.336 82.8911 344.204 83.1391 344.204 83.4431C344.204 83.6831 344.276 83.8711 344.42 84.0071C344.572 84.1431 344.768 84.2511 345.008 84.3311C345.256 84.4031 345.524 84.4631 345.812 84.5111C346.108 84.5591 346.4 84.6191 346.688 84.6911C346.984 84.7551 347.252 84.8471 347.492 84.9671C347.74 85.0791 347.936 85.2431 348.08 85.4591C348.232 85.6671 348.308 85.9431 348.308 86.2871C348.308 86.6551 348.204 86.9751 347.996 87.2471C347.796 87.5111 347.5 87.7191 347.108 87.8711C346.724 88.0151 346.256 88.0871 345.704 88.0871ZM351.563 88.0871C351.043 88.0871 350.551 88.0151 350.087 87.8711C349.623 87.7191 349.259 87.5311 348.995 87.3071L349.379 86.6351C349.635 86.8271 349.963 86.9951 350.363 87.1391C350.763 87.2751 351.183 87.3431 351.623 87.3431C352.223 87.3431 352.655 87.2511 352.919 87.0671C353.183 86.8751 353.315 86.6231 353.315 86.3111C353.315 86.0791 353.239 85.8991 353.087 85.7711C352.943 85.6351 352.751 85.5351 352.511 85.4711C352.271 85.3991 352.003 85.3391 351.707 85.2911C351.411 85.2431 351.115 85.1871 350.819 85.1231C350.531 85.0591 350.267 84.9671 350.027 84.8471C349.787 84.7191 349.591 84.5471 349.439 84.3311C349.295 84.1151 349.223 83.8271 349.223 83.4671C349.223 83.1231 349.319 82.8151 349.511 82.5431C349.703 82.2711 349.983 82.0591 350.351 81.9071C350.727 81.7471 351.183 81.6671 351.719 81.6671C352.127 81.6671 352.535 81.7231 352.943 81.8351C353.351 81.9391 353.687 82.0791 353.951 82.2551L353.579 82.9391C353.299 82.7471 352.999 82.6111 352.679 82.5311C352.359 82.4431 352.039 82.3991 351.719 82.3991C351.151 82.3991 350.731 82.4991 350.459 82.6991C350.195 82.8911 350.063 83.1391 350.063 83.4431C350.063 83.6831 350.135 83.8711 350.279 84.0071C350.431 84.1431 350.627 84.2511 350.867 84.3311C351.115 84.4031 351.383 84.4631 351.671 84.5111C351.967 84.5591 352.259 84.6191 352.547 84.6911C352.843 84.7551 353.111 84.8471 353.351 84.9671C353.599 85.0791 353.795 85.2431 353.939 85.4591C354.091 85.6671 354.167 85.9431 354.167 86.2871C354.167 86.6551 354.063 86.9751 353.855 87.2471C353.655 87.5111 353.359 87.7191 352.967 87.8711C352.583 88.0151 352.115 88.0871 351.563 88.0871ZM363.602 81.6671C364.114 81.6671 364.558 81.7671 364.934 81.9671C365.318 82.1591 365.614 82.4551 365.822 82.8551C366.038 83.2551 366.146 83.7591 366.146 84.3671V88.0271H365.294V84.4511C365.294 83.7871 365.134 83.2871 364.814 82.9511C364.502 82.6071 364.058 82.4351 363.482 82.4351C363.05 82.4351 362.674 82.5271 362.354 82.7111C362.042 82.8871 361.798 83.1471 361.622 83.4911C361.454 83.8271 361.37 84.2351 361.37 84.7151V88.0271H360.518V84.4511C360.518 83.7871 360.358 83.2871 360.038 82.9511C359.718 82.6071 359.27 82.4351 358.694 82.4351C358.27 82.4351 357.898 82.5271 357.578 82.7111C357.258 82.8871 357.01 83.1471 356.834 83.4911C356.666 83.8271 356.582 84.2351 356.582 84.7151V88.0271H355.73V81.7271H356.546V83.4311L356.414 83.1311C356.606 82.6751 356.914 82.3191 357.338 82.0631C357.77 81.7991 358.278 81.6671 358.862 81.6671C359.478 81.6671 360.002 81.8231 360.434 82.1351C360.866 82.4391 361.146 82.8991 361.274 83.5151L360.938 83.3831C361.122 82.8711 361.446 82.4591 361.91 82.1471C362.382 81.8271 362.946 81.6671 363.602 81.6671ZM371.133 88.0871C370.477 88.0871 369.901 87.9511 369.405 87.6791C368.909 87.3991 368.521 87.0191 368.241 86.5391C367.961 86.0511 367.821 85.4951 367.821 84.8711C367.821 84.2471 367.953 83.6951 368.217 83.2151C368.489 82.7351 368.857 82.3591 369.321 82.0871C369.793 81.8071 370.321 81.6671 370.905 81.6671C371.497 81.6671 372.021 81.8031 372.477 82.0751C372.941 82.3391 373.305 82.7151 373.569 83.2031C373.833 83.6831 373.965 84.2391 373.965 84.8711C373.965 84.9111 373.961 84.9551 373.953 85.0031C373.953 85.0431 373.953 85.0871 373.953 85.1351H368.469V84.4991H373.497L373.161 84.7511C373.161 84.2951 373.061 83.8911 372.861 83.5391C372.669 83.1791 372.405 82.8991 372.069 82.6991C371.733 82.4991 371.345 82.3991 370.905 82.3991C370.473 82.3991 370.085 82.4991 369.741 82.6991C369.397 82.8991 369.129 83.1791 368.937 83.5391C368.745 83.8991 368.649 84.3111 368.649 84.7751V84.9071C368.649 85.3871 368.753 85.8111 368.961 86.1791C369.177 86.5391 369.473 86.8231 369.849 87.0311C370.233 87.2311 370.669 87.3311 371.157 87.3311C371.541 87.3311 371.897 87.2631 372.225 87.1271C372.561 86.9911 372.849 86.7831 373.089 86.5031L373.569 87.0551C373.289 87.3911 372.937 87.6471 372.513 87.8231C372.097 87.9991 371.637 88.0871 371.133 88.0871ZM378.915 81.6671C379.427 81.6671 379.875 81.7671 380.259 81.9671C380.651 82.1591 380.955 82.4551 381.171 82.8551C381.395 83.2551 381.507 83.7591 381.507 84.3671V88.0271H380.655V84.4511C380.655 83.7871 380.487 83.2871 380.151 82.9511C379.823 82.6071 379.359 82.4351 378.759 82.4351C378.311 82.4351 377.919 82.5271 377.583 82.7111C377.255 82.8871 376.999 83.1471 376.815 83.4911C376.639 83.8271 376.551 84.2351 376.551 84.7151V88.0271H375.699V81.7271H376.515V83.4551L376.383 83.1311C376.583 82.6751 376.903 82.3191 377.343 82.0631C377.783 81.7991 378.307 81.6671 378.915 81.6671ZM385.8 88.0871C385.208 88.0871 384.752 87.9271 384.432 87.6071C384.112 87.2871 383.952 86.8351 383.952 86.2511V80.3351H384.804V86.2031C384.804 86.5711 384.896 86.8551 385.08 87.0551C385.272 87.2551 385.544 87.3551 385.896 87.3551C386.272 87.3551 386.584 87.2471 386.832 87.0311L387.132 87.6431C386.964 87.7951 386.76 87.9071 386.52 87.9791C386.288 88.0511 386.048 88.0871 385.8 88.0871ZM382.824 82.4351V81.7271H386.724V82.4351H382.824ZM388.285 89.7791L388.813 87.5591L388.909 88.0751C388.725 88.0751 388.569 88.0151 388.441 87.8951C388.321 87.7751 388.261 87.6191 388.261 87.4271C388.261 87.2351 388.321 87.0791 388.441 86.9591C388.569 86.8391 388.721 86.7791 388.897 86.7791C389.081 86.7791 389.229 86.8431 389.341 86.9711C389.461 87.0991 389.521 87.2511 389.521 87.4271C389.521 87.4911 389.517 87.5551 389.509 87.6191C389.501 87.6831 389.485 87.7551 389.461 87.8351C389.437 87.9151 389.405 88.0111 389.365 88.1231L388.861 89.7791H388.285ZM396.296 88.0271V80.3951H393.344V79.6271H400.136V80.3951H397.184V88.0271H396.296ZM404.971 88.0271V86.6351L404.935 86.4071V84.0791C404.935 83.5431 404.783 83.1311 404.479 82.8431C404.183 82.5551 403.739 82.4111 403.147 82.4111C402.739 82.4111 402.351 82.4791 401.983 82.6151C401.615 82.7511 401.303 82.9311 401.047 83.1551L400.663 82.5191C400.983 82.2471 401.367 82.0391 401.815 81.8951C402.263 81.7431 402.735 81.6671 403.231 81.6671C404.047 81.6671 404.675 81.8711 405.115 82.2791C405.563 82.6791 405.787 83.2911 405.787 84.1151V88.0271H404.971ZM402.799 88.0871C402.327 88.0871 401.915 88.0111 401.563 87.8591C401.219 87.6991 400.955 87.4831 400.771 87.2111C400.587 86.9311 400.495 86.6111 400.495 86.2511C400.495 85.9231 400.571 85.6271 400.723 85.3631C400.883 85.0911 401.139 84.8751 401.491 84.7151C401.851 84.5471 402.331 84.4631 402.931 84.4631H405.103V85.0991H402.955C402.347 85.0991 401.923 85.2071 401.683 85.4231C401.451 85.6391 401.335 85.9071 401.335 86.2271C401.335 86.5871 401.475 86.8751 401.755 87.0911C402.035 87.3071 402.427 87.4151 402.931 87.4151C403.411 87.4151 403.823 87.3071 404.167 87.0911C404.519 86.8671 404.775 86.5471 404.935 86.1311L405.127 86.7191C404.967 87.1351 404.687 87.4671 404.287 87.7151C403.895 87.9631 403.399 88.0871 402.799 88.0871ZM408.101 88.0271V81.7271H408.917V83.4431L408.833 83.1431C409.009 82.6631 409.305 82.2991 409.721 82.0511C410.137 81.7951 410.653 81.6671 411.269 81.6671V82.4951C411.237 82.4951 411.205 82.4951 411.173 82.4951C411.141 82.4871 411.109 82.4831 411.077 82.4831C410.413 82.4831 409.893 82.6871 409.517 83.0951C409.141 83.4951 408.953 84.0671 408.953 84.8111V88.0271H408.101ZM415.454 90.4151C414.878 90.4151 414.326 90.3311 413.798 90.1631C413.27 89.9951 412.842 89.7551 412.514 89.4431L412.946 88.7951C413.242 89.0591 413.606 89.2671 414.038 89.4191C414.478 89.5791 414.942 89.6591 415.43 89.6591C416.23 89.6591 416.818 89.4711 417.194 89.0951C417.57 88.7271 417.758 88.1511 417.758 87.3671V85.7951L417.878 84.7151L417.794 83.6351V81.7271H418.61V87.2591C418.61 88.3471 418.342 89.1431 417.806 89.6471C417.278 90.1591 416.494 90.4151 415.454 90.4151ZM415.298 87.7871C414.698 87.7871 414.158 87.6591 413.678 87.4031C413.198 87.1391 412.818 86.7751 412.538 86.3111C412.266 85.8471 412.13 85.3151 412.13 84.7151C412.13 84.1151 412.266 83.5871 412.538 83.1311C412.818 82.6671 413.198 82.3071 413.678 82.0511C414.158 81.7951 414.698 81.6671 415.298 81.6671C415.858 81.6671 416.362 81.7831 416.81 82.0151C417.258 82.2471 417.614 82.5911 417.878 83.0471C418.142 83.5031 418.274 84.0591 418.274 84.7151C418.274 85.3711 418.142 85.9271 417.878 86.3831C417.614 86.8391 417.258 87.1871 416.81 87.4271C416.362 87.6671 415.858 87.7871 415.298 87.7871ZM415.382 87.0311C415.846 87.0311 416.258 86.9351 416.618 86.7431C416.978 86.5431 417.262 86.2711 417.47 85.9271C417.678 85.5751 417.782 85.1711 417.782 84.7151C417.782 84.2591 417.678 83.8591 417.47 83.5151C417.262 83.1711 416.978 82.9031 416.618 82.7111C416.258 82.5111 415.846 82.4111 415.382 82.4111C414.926 82.4111 414.514 82.5111 414.146 82.7111C413.786 82.9031 413.502 83.1711 413.294 83.5151C413.094 83.8591 412.994 84.2591 412.994 84.7151C412.994 85.1711 413.094 85.5751 413.294 85.9271C413.502 86.2711 413.786 86.5431 414.146 86.7431C414.514 86.9351 414.926 87.0311 415.382 87.0311ZM423.656 88.0871C423 88.0871 422.424 87.9511 421.928 87.6791C421.432 87.3991 421.044 87.0191 420.764 86.5391C420.484 86.0511 420.344 85.4951 420.344 84.8711C420.344 84.2471 420.476 83.6951 420.74 83.2151C421.012 82.7351 421.38 82.3591 421.844 82.0871C422.316 81.8071 422.844 81.6671 423.428 81.6671C424.02 81.6671 424.544 81.8031 425 82.0751C425.464 82.3391 425.828 82.7151 426.092 83.2031C426.356 83.6831 426.488 84.2391 426.488 84.8711C426.488 84.9111 426.484 84.9551 426.476 85.0031C426.476 85.0431 426.476 85.0871 426.476 85.1351H420.992V84.4991H426.02L425.684 84.7511C425.684 84.2951 425.584 83.8911 425.384 83.5391C425.192 83.1791 424.928 82.8991 424.592 82.6991C424.256 82.4991 423.868 82.3991 423.428 82.3991C422.996 82.3991 422.608 82.4991 422.264 82.6991C421.92 82.8991 421.652 83.1791 421.46 83.5391C421.268 83.8991 421.172 84.3111 421.172 84.7751V84.9071C421.172 85.3871 421.276 85.8111 421.484 86.1791C421.7 86.5391 421.996 86.8231 422.372 87.0311C422.756 87.2311 423.192 87.3311 423.68 87.3311C424.064 87.3311 424.42 87.2631 424.748 87.1271C425.084 86.9911 425.372 86.7831 425.612 86.5031L426.092 87.0551C425.812 87.3911 425.46 87.6471 425.036 87.8231C424.62 87.9991 424.16 88.0871 423.656 88.0871ZM430.215 88.0871C429.623 88.0871 429.167 87.9271 428.847 87.6071C428.527 87.2871 428.367 86.8351 428.367 86.2511V80.3351H429.219V86.2031C429.219 86.5711 429.311 86.8551 429.495 87.0551C429.687 87.2551 429.959 87.3551 430.311 87.3551C430.687 87.3551 430.999 87.2471 431.247 87.0311L431.547 87.6431C431.379 87.7951 431.175 87.9071 430.935 87.9791C430.703 88.0511 430.463 88.0871 430.215 88.0871ZM427.239 82.4351V81.7271H431.139V82.4351H427.239ZM434.79 88.0871C434.27 88.0871 433.778 88.0151 433.314 87.8711C432.85 87.7191 432.486 87.5311 432.222 87.3071L432.606 86.6351C432.862 86.8271 433.19 86.9951 433.59 87.1391C433.99 87.2751 434.41 87.3431 434.85 87.3431C435.45 87.3431 435.882 87.2511 436.146 87.0671C436.41 86.8751 436.542 86.6231 436.542 86.3111C436.542 86.0791 436.466 85.8991 436.314 85.7711C436.17 85.6351 435.978 85.5351 435.738 85.4711C435.498 85.3991 435.23 85.3391 434.934 85.2911C434.638 85.2431 434.342 85.1871 434.046 85.1231C433.758 85.0591 433.494 84.9671 433.254 84.8471C433.014 84.7191 432.818 84.5471 432.666 84.3311C432.522 84.1151 432.45 83.8271 432.45 83.4671C432.45 83.1231 432.546 82.8151 432.738 82.5431C432.93 82.2711 433.21 82.0591 433.578 81.9071C433.954 81.7471 434.41 81.6671 434.946 81.6671C435.354 81.6671 435.762 81.7231 436.17 81.8351C436.578 81.9391 436.914 82.0791 437.178 82.2551L436.806 82.9391C436.526 82.7471 436.226 82.6111 435.906 82.5311C435.586 82.4431 435.266 82.3991 434.946 82.3991C434.378 82.3991 433.958 82.4991 433.686 82.6991C433.422 82.8911 433.29 83.1391 433.29 83.4431C433.29 83.6831 433.362 83.8711 433.506 84.0071C433.658 84.1431 433.854 84.2511 434.094 84.3311C434.342 84.4031 434.61 84.4631 434.898 84.5111C435.194 84.5591 435.486 84.6191 435.774 84.6911C436.07 84.7551 436.338 84.8471 436.578 84.9671C436.826 85.0791 437.022 85.2431 437.166 85.4591C437.318 85.6671 437.394 85.9431 437.394 86.2871C437.394 86.6551 437.29 86.9751 437.082 87.2471C436.882 87.5111 436.586 87.7191 436.194 87.8711C435.81 88.0151 435.342 88.0871 434.79 88.0871ZM438.441 89.7791L438.969 87.5591L439.065 88.0751C438.881 88.0751 438.725 88.0151 438.597 87.8951C438.477 87.7751 438.417 87.6191 438.417 87.4271C438.417 87.2351 438.477 87.0791 438.597 86.9591C438.725 86.8391 438.877 86.7791 439.053 86.7791C439.237 86.7791 439.385 86.8431 439.497 86.9711C439.617 87.0991 439.677 87.2511 439.677 87.4271C439.677 87.4911 439.673 87.5551 439.665 87.6191C439.657 87.6831 439.641 87.7551 439.617 87.8351C439.593 87.9151 439.561 88.0111 439.521 88.1231L439.017 89.7791H438.441ZM448.589 88.0271V86.6351L448.553 86.4071V84.0791C448.553 83.5431 448.401 83.1311 448.097 82.8431C447.801 82.5551 447.357 82.4111 446.765 82.4111C446.357 82.4111 445.969 82.4791 445.601 82.6151C445.233 82.7511 444.921 82.9311 444.665 83.1551L444.281 82.5191C444.601 82.2471 444.985 82.0391 445.433 81.8951C445.881 81.7431 446.353 81.6671 446.849 81.6671C447.665 81.6671 448.293 81.8711 448.733 82.2791C449.181 82.6791 449.405 83.2911 449.405 84.1151V88.0271H448.589ZM446.417 88.0871C445.945 88.0871 445.533 88.0111 445.181 87.8591C444.837 87.6991 444.573 87.4831 444.389 87.2111C444.205 86.9311 444.113 86.6111 444.113 86.2511C444.113 85.9231 444.189 85.6271 444.341 85.3631C444.501 85.0911 444.757 84.8751 445.109 84.7151C445.469 84.5471 445.949 84.4631 446.549 84.4631H448.721V85.0991H446.573C445.965 85.0991 445.541 85.2071 445.301 85.4231C445.069 85.6391 444.953 85.9071 444.953 86.2271C444.953 86.5871 445.093 86.8751 445.373 87.0911C445.653 87.3071 446.045 87.4151 446.549 87.4151C447.029 87.4151 447.441 87.3071 447.785 87.0911C448.137 86.8671 448.393 86.5471 448.553 86.1311L448.745 86.7191C448.585 87.1351 448.305 87.4671 447.905 87.7151C447.513 87.9631 447.017 88.0871 446.417 88.0871ZM454.935 81.6671C455.447 81.6671 455.895 81.7671 456.279 81.9671C456.671 82.1591 456.975 82.4551 457.191 82.8551C457.415 83.2551 457.527 83.7591 457.527 84.3671V88.0271H456.675V84.4511C456.675 83.7871 456.507 83.2871 456.171 82.9511C455.843 82.6071 455.379 82.4351 454.779 82.4351C454.331 82.4351 453.939 82.5271 453.603 82.7111C453.275 82.8871 453.019 83.1471 452.835 83.4911C452.659 83.8271 452.571 84.2351 452.571 84.7151V88.0271H451.719V81.7271H452.535V83.4551L452.403 83.1311C452.603 82.6751 452.923 82.3191 453.363 82.0631C453.803 81.7991 454.327 81.6671 454.935 81.6671ZM462.336 88.0871C461.736 88.0871 461.196 87.9511 460.716 87.6791C460.244 87.4071 459.872 87.0311 459.6 86.5511C459.328 86.0631 459.192 85.5031 459.192 84.8711C459.192 84.2311 459.328 83.6711 459.6 83.1911C459.872 82.7111 460.244 82.3391 460.716 82.0751C461.196 81.8031 461.736 81.6671 462.336 81.6671C462.888 81.6671 463.38 81.7911 463.812 82.0391C464.252 82.2871 464.6 82.6511 464.856 83.1311C465.12 83.6031 465.252 84.1831 465.252 84.8711C465.252 85.5511 465.124 86.1311 464.868 86.6111C464.612 87.0911 464.264 87.4591 463.824 87.7151C463.392 87.9631 462.896 88.0871 462.336 88.0871ZM462.396 87.3311C462.844 87.3311 463.244 87.2311 463.596 87.0311C463.956 86.8231 464.236 86.5351 464.436 86.1671C464.644 85.7911 464.748 85.3591 464.748 84.8711C464.748 84.3751 464.644 83.9431 464.436 83.5751C464.236 83.2071 463.956 82.9231 463.596 82.7231C463.244 82.5151 462.844 82.4111 462.396 82.4111C461.956 82.4111 461.56 82.5151 461.208 82.7231C460.856 82.9231 460.576 83.2071 460.368 83.5751C460.16 83.9431 460.056 84.3751 460.056 84.8711C460.056 85.3591 460.16 85.7911 460.368 86.1671C460.576 86.5351 460.856 86.8231 461.208 87.0311C461.56 87.2311 461.956 87.3311 462.396 87.3311ZM464.772 88.0271V86.1311L464.856 84.8591L464.736 83.5871V79.1231H465.588V88.0271H464.772ZM477.425 79.6271H478.301V88.0271H477.425V79.6271ZM472.169 88.0271H471.281V79.6271H472.169V88.0271ZM477.509 84.1511H472.073V83.3711H477.509V84.1511ZM483.539 88.0871C482.883 88.0871 482.307 87.9511 481.811 87.6791C481.315 87.3991 480.927 87.0191 480.647 86.5391C480.367 86.0511 480.227 85.4951 480.227 84.8711C480.227 84.2471 480.359 83.6951 480.623 83.2151C480.895 82.7351 481.263 82.3591 481.727 82.0871C482.199 81.8071 482.727 81.6671 483.311 81.6671C483.903 81.6671 484.427 81.8031 484.883 82.0751C485.347 82.3391 485.711 82.7151 485.975 83.2031C486.239 83.6831 486.371 84.2391 486.371 84.8711C486.371 84.9111 486.367 84.9551 486.359 85.0031C486.359 85.0431 486.359 85.0871 486.359 85.1351H480.875V84.4991H485.903L485.567 84.7511C485.567 84.2951 485.467 83.8911 485.267 83.5391C485.075 83.1791 484.811 82.8991 484.475 82.6991C484.139 82.4991 483.751 82.3991 483.311 82.3991C482.879 82.3991 482.491 82.4991 482.147 82.6991C481.803 82.8991 481.535 83.1791 481.343 83.5391C481.151 83.8991 481.055 84.3111 481.055 84.7751V84.9071C481.055 85.3871 481.159 85.8111 481.367 86.1791C481.583 86.5391 481.879 86.8231 482.255 87.0311C482.639 87.2311 483.075 87.3311 483.563 87.3311C483.947 87.3311 484.303 87.2631 484.631 87.1271C484.967 86.9911 485.255 86.7831 485.495 86.5031L485.975 87.0551C485.695 87.3911 485.343 87.6471 484.919 87.8231C484.503 87.9991 484.043 88.0871 483.539 88.0871ZM488.105 88.0271V79.1231H488.957V88.0271H488.105ZM494.58 88.0871C494.036 88.0871 493.544 87.9631 493.104 87.7151C492.664 87.4591 492.312 87.0951 492.048 86.6231C491.792 86.1431 491.664 85.5591 491.664 84.8711C491.664 84.1831 491.792 83.6031 492.048 83.1311C492.304 82.6511 492.652 82.2871 493.092 82.0391C493.532 81.7911 494.028 81.6671 494.58 81.6671C495.18 81.6671 495.716 81.8031 496.188 82.0751C496.668 82.3391 497.044 82.7151 497.316 83.2031C497.588 83.6831 497.724 84.2391 497.724 84.8711C497.724 85.5111 497.588 86.0711 497.316 86.5511C497.044 87.0311 496.668 87.4071 496.188 87.6791C495.716 87.9511 495.18 88.0871 494.58 88.0871ZM491.328 90.3551V81.7271H492.144V83.6231L492.06 84.8831L492.18 86.1551V90.3551H491.328ZM494.52 87.3311C494.968 87.3311 495.368 87.2311 495.72 87.0311C496.072 86.8231 496.352 86.5351 496.56 86.1671C496.768 85.7911 496.872 85.3591 496.872 84.8711C496.872 84.3831 496.768 83.9551 496.56 83.5871C496.352 83.2191 496.072 82.9311 495.72 82.7231C495.368 82.5151 494.968 82.4111 494.52 82.4111C494.072 82.4111 493.668 82.5151 493.308 82.7231C492.956 82.9311 492.676 83.2191 492.468 83.5871C492.268 83.9551 492.168 84.3831 492.168 84.8711C492.168 85.3591 492.268 85.7911 492.468 86.1671C492.676 86.5351 492.956 86.8231 493.308 87.0311C493.668 87.2311 494.072 87.3311 494.52 87.3311ZM502.137 88.0871C501.481 88.0871 500.905 87.9511 500.409 87.6791C499.913 87.3991 499.525 87.0191 499.245 86.5391C498.965 86.0511 498.825 85.4951 498.825 84.8711C498.825 84.2471 498.957 83.6951 499.221 83.2151C499.493 82.7351 499.861 82.3591 500.325 82.0871C500.797 81.8071 501.325 81.6671 501.909 81.6671C502.501 81.6671 503.025 81.8031 503.481 82.0751C503.945 82.3391 504.309 82.7151 504.573 83.2031C504.837 83.6831 504.969 84.2391 504.969 84.8711C504.969 84.9111 504.965 84.9551 504.957 85.0031C504.957 85.0431 504.957 85.0871 504.957 85.1351H499.473V84.4991H504.501L504.165 84.7511C504.165 84.2951 504.065 83.8911 503.865 83.5391C503.673 83.1791 503.409 82.8991 503.073 82.6991C502.737 82.4991 502.349 82.3991 501.909 82.3991C501.477 82.3991 501.089 82.4991 500.745 82.6991C500.401 82.8991 500.133 83.1791 499.941 83.5391C499.749 83.8991 499.653 84.3111 499.653 84.7751V84.9071C499.653 85.3871 499.757 85.8111 499.965 86.1791C500.181 86.5391 500.477 86.8231 500.853 87.0311C501.237 87.2311 501.673 87.3311 502.161 87.3311C502.545 87.3311 502.901 87.2631 503.229 87.1271C503.565 86.9911 503.853 86.7831 504.093 86.5031L504.573 87.0551C504.293 87.3911 503.941 87.6471 503.517 87.8231C503.101 87.9991 502.641 88.0871 502.137 88.0871ZM506.703 88.0271V81.7271H507.519V83.4431L507.435 83.1431C507.611 82.6631 507.907 82.2991 508.323 82.0511C508.739 81.7951 509.255 81.6671 509.871 81.6671V82.4951C509.839 82.4951 509.807 82.4951 509.775 82.4951C509.743 82.4871 509.711 82.4831 509.679 82.4831C509.015 82.4831 508.495 82.6871 508.119 83.0951C507.743 83.4951 507.555 84.0671 507.555 84.8111V88.0271H506.703Z" fill="#00B4D8"/>
<defs>
<linearGradient id="paint0_linear_101_379" x1="103.834" y1="52.1989" x2="53.038" y2="52.1989" gradientUnits="userSpaceOnUse">
<stop stop-color="#00B4D8"/>
<stop offset="0.835" stop-color="#C0C0C0"/>
</linearGradient>
<linearGradient id="paint1_linear_101_379" x1="2.29831" y1="54.8889" x2="53.0947" y2="54.8889" gradientUnits="userSpaceOnUse">
<stop stop-color="#00B4D8"/>
<stop offset="0.835" stop-color="#C0C0C0"/>
</linearGradient>
<linearGradient id="paint2_linear_101_379" x1="54.388" y1="104.257" x2="54.388" y2="53.4602" gradientUnits="userSpaceOnUse">
<stop stop-color="#00B4D8"/>
<stop offset="0.835" stop-color="#C0C0C0"/>
</linearGradient>
<linearGradient id="paint3_linear_101_379" x1="51.5529" y1="2.79613" x2="51.5529" y2="53.5925" gradientUnits="userSpaceOnUse">
<stop stop-color="#00B4D8"/>
<stop offset="0.835" stop-color="#C0C0C0"/>
</linearGradient>
</defs>
</svg>
